<?xml version="1.0" standalone="no"?>
<!DOCTYPE svg PUBLIC "-//W3C//DTD SVG 20010904//EN"
 "http://www.w3.org/TR/2001/REC-SVG-20010904/DTD/svg10.dtd">
<svg version="1.0" xmlns="http://www.w3.org/2000/svg"
 width="1578.000000pt" height="382.000000pt" viewBox="0 0 1578.000000 382.000000"
 preserveAspectRatio="xMidYMid meet">

<g transform="translate(0.000000,382.000000) scale(0.100000,-0.100000)"
fill="#000000" stroke="none">
<path d="M8074 3472 c32 -37 46 -125 46 -304 l0 -168 38 0 c20 0 47 -3 60 -6
22 -6 22 -6 22 107 0 63 -4 130 -9 149 -5 19 -12 47 -15 61 -6 26 -115 157
-144 173 -14 7 -14 5 2 -12z"/>
<path d="M2533 3310 c74 -91 151 -203 176 -258 21 -45 28 -52 53 -52 25 0 27
2 19 19 -27 50 -141 192 -213 265 -64 64 -71 70 -35 26z"/>
<path d="M12886 3260 c174 -198 230 -318 204 -439 -16 -78 -43 -109 -198 -227
-70 -54 -131 -101 -136 -106 -6 -4 28 -8 76 -8 l86 0 38 53 c52 71 149 172
208 215 48 35 48 36 42 80 -11 79 -151 277 -292 412 -45 43 -54 49 -28 20z"/>
<path d="M3567 2865 c40 -60 43 -103 45 -662 l3 -538 5 560 c3 308 8 565 12
571 4 6 -13 30 -39 55 -37 35 -42 38 -26 14z"/>
<path d="M8453 2863 c10 -12 22 -37 28 -57 9 -32 12 -35 30 -25 20 10 19 12
-14 52 -18 22 -40 43 -48 45 -10 4 -9 -1 4 -15z"/>
<path d="M12581 2620 c-198 -152 -240 -180 -268 -180 -50 0 -67 13 -102 74
-47 83 -130 160 -225 206 -212 104 -420 71 -569 -90 -52 -55 -107 -151 -122
-210 l-6 -25 20 25 c11 13 18 27 15 31 -2 4 3 9 11 13 8 3 15 12 15 20 0 8 9
18 20 21 11 3 20 12 20 20 0 8 9 17 20 20 11 3 25 15 31 26 5 11 14 17 20 14
5 -4 9 -1 9 4 0 6 9 11 21 11 11 0 18 4 15 9 -3 4 6 6 21 3 17 -3 24 -1 19 6
-6 10 19 22 59 28 35 5 65 13 75 19 6 3 10 2 10 -4 0 -9 18 -8 82 5 14 3 29 1
32 -5 4 -6 13 -8 21 -4 9 3 21 0 29 -6 7 -6 15 -8 19 -5 3 3 15 1 26 -6 14 -7
21 -7 21 0 0 6 7 6 19 -2 11 -7 18 -15 15 -19 -2 -4 3 -10 12 -13 8 -3 12 -2
9 4 -8 13 -2 13 30 -2 14 -6 25 -15 25 -20 0 -5 13 -14 30 -19 17 -6 27 -16
23 -22 -4 -7 0 -8 11 -4 9 4 15 3 11 -3 -3 -5 10 -16 29 -25 20 -10 34 -20 33
-24 -3 -10 59 -71 72 -71 5 0 13 -5 17 -12 5 -7 3 -8 -6 -3 -8 5 -11 4 -7 -2
3 -5 27 -10 53 -12 26 -1 51 -4 55 -7 4 -2 11 1 14 7 4 5 14 8 22 5 17 -7 66
28 55 39 -4 5 -2 5 4 2 6 -3 20 2 31 13 12 10 24 16 27 12 4 -3 4 2 0 12 -5
13 -4 17 3 13 6 -4 14 0 17 9 3 9 13 14 21 11 8 -4 16 2 20 13 3 10 15 22 26
25 10 4 24 15 30 26 5 11 15 17 20 13 6 -3 24 6 40 22 16 15 29 24 30 18 0 -5
4 2 10 14 5 13 15 22 21 19 7 -2 19 10 26 27 10 25 15 28 22 16 7 -11 10 -11
11 -2 1 6 3 17 4 22 1 6 3 15 4 21 0 5 5 8 9 5 5 -3 9 0 9 7 0 7 2 18 4 26 2
7 0 15 -6 17 -5 2 -115 -78 -244 -176z"/>
<path d="M1380 2756 c0 -50 14 -106 27 -106 8 0 11 5 8 10 -9 14 18 12 34 -2
10 -9 12 -9 7 -1 -7 13 50 13 72 0 6 -5 12 -4 12 2 0 10 46 9 57 -2 3 -4 11
-3 17 2 12 10 111 -32 111 -46 0 -5 3 -7 7 -5 5 1 8 -5 8 -14 0 -8 4 -13 9 -9
13 8 3 103 -15 137 -8 16 -26 33 -40 38 -14 6 -90 10 -170 10 -115 0 -144 -3
-144 -14z"/>
<path d="M15104 2560 c132 -167 191 -290 242 -510 31 -132 41 -315 24 -431
-45 -309 -150 -530 -345 -724 -195 -195 -388 -288 -729 -350 -140 -26 -394
-17 -551 19 -216 50 -341 99 -472 188 l-72 48 -11 -42 c-16 -64 -31 -87 -78
-127 -73 -61 -132 -71 -456 -71 -294 0 -345 6 -442 52 -41 19 -46 19 -91 4
-246 -80 -513 -87 -788 -19 -192 47 -383 131 -515 225 -100 72 -114 79 -60 29
65 -60 231 -185 300 -225 234 -138 603 -220 869 -195 53 5 150 23 216 40 66
17 130 33 143 36 14 3 30 -1 42 -12 11 -10 50 -26 87 -36 59 -17 105 -19 351
-19 360 0 398 7 477 86 44 43 55 61 60 99 4 25 11 48 16 50 4 3 36 -15 71 -41
105 -77 229 -131 405 -175 316 -80 596 -68 913 37 221 74 445 249 582 456 95
142 126 218 174 419 24 99 28 135 28 274 1 140 -3 174 -27 277 -64 275 -155
440 -356 648 l-82 85 75 -95z"/>
<path d="M11635 2533 c-91 -46 -145 -112 -186 -229 -17 -47 -21 -83 -21 -184
0 -110 3 -133 25 -191 14 -37 37 -84 50 -106 26 -40 76 -87 85 -79 2 3 -6 33
-19 68 -18 52 -22 85 -23 183 0 108 3 130 32 225 18 58 41 121 51 140 42 79
133 119 271 120 70 1 74 2 55 16 -87 69 -227 85 -320 37z"/>
<path d="M1550 2535 c0 -8 5 -15 10 -15 6 0 10 7 10 15 0 8 -4 15 -10 15 -5 0
-10 -7 -10 -15z"/>
<path d="M6920 2141 c0 -28 39 -90 40 -63 0 10 4 9 16 -3 10 -9 25 -14 36 -12
10 3 16 1 13 -3 -3 -5 3 -13 13 -19 13 -7 19 -6 20 2 1 7 5 38 8 70 l6 57 -76
0 -76 0 0 -29z"/>
<path d="M7950 2115 c0 -50 2 -55 23 -56 12 0 39 -2 60 -4 20 -1 37 2 37 8 0
5 7 4 16 -4 13 -10 17 -10 24 0 4 8 12 11 18 7 6 -3 13 -2 17 4 3 5 15 10 26
10 10 0 19 4 19 9 0 5 8 11 18 13 9 3 25 19 35 37 l18 31 -155 0 -156 0 0 -55z"/>
<path d="M9302 2131 c-77 -20 -152 -99 -168 -179 -8 -41 3 -40 39 1 16 17 26
26 22 19 -4 -7 8 -4 26 7 18 11 37 17 42 14 6 -4 8 0 5 8 -5 12 4 15 44 14 27
-1 51 2 54 7 3 4 16 3 30 -2 13 -5 28 -9 32 -8 17 3 82 -34 92 -52 7 -12 16
-17 27 -13 11 4 14 3 9 -6 -5 -8 -1 -14 13 -18 12 -3 21 -11 21 -19 0 -7 5
-16 11 -20 17 -10 1 73 -23 121 -26 52 -55 83 -98 105 -42 21 -132 32 -178 21z"/>
<path d="M14000 2131 c-43 -13 -84 -38 -112 -68 -29 -31 -67 -107 -68 -136 0
-19 5 -17 57 31 13 12 28 20 32 18 4 -3 13 3 20 13 9 12 21 16 34 13 14 -4 18
-1 13 7 -6 8 -1 10 18 5 15 -3 26 -2 26 4 0 12 33 10 42 -3 5 -6 8 -5 8 4 0 9
4 10 13 4 6 -6 20 -9 30 -8 10 2 14 -1 10 -7 -4 -7 2 -9 15 -6 12 4 22 2 22
-3 0 -5 9 -9 20 -9 11 0 20 -4 20 -10 0 -5 6 -10 13 -10 7 0 19 -9 27 -19 7
-11 18 -17 23 -14 6 3 7 2 4 -4 -3 -5 3 -22 14 -39 l19 -29 0 40 c0 144 -164
267 -300 226z"/>
<path d="M5885 2110 c-66 -14 -140 -70 -184 -139 -26 -39 -30 -53 -22 -72 5
-13 10 -18 10 -10 1 8 4 11 8 8 3 -4 12 2 20 13 8 11 21 20 29 20 8 0 14 7 14
16 0 8 5 12 10 9 6 -3 10 -2 10 4 0 6 7 8 15 5 8 -4 15 -1 15 6 0 6 5 8 10 5
6 -3 10 -1 10 5 0 6 4 9 9 6 5 -4 12 0 14 6 4 10 6 10 6 0 1 -9 7 -10 19 -4
26 13 57 7 87 -16 15 -12 31 -19 36 -16 5 3 9 -2 9 -11 0 -9 5 -13 11 -9 7 4
10 27 7 61 -4 40 -11 61 -29 79 -30 29 -74 43 -114 34z"/>
<path d="M2545 2080 c-12 -37 -121 -174 -191 -240 -116 -109 -223 -172 -371
-217 -83 -25 -101 -27 -346 -31 l-258 -4 6 -61 c7 -66 12 -78 23 -61 4 6 33
11 65 10 31 -1 57 2 57 7 0 4 8 3 19 -2 11 -7 30 -7 50 -1 18 5 33 5 36 -1 4
-5 11 -9 16 -9 6 0 8 4 5 8 -2 4 4 8 14 8 10 0 17 -3 15 -6 -2 -3 9 -6 25 -5
15 0 26 3 24 6 -2 4 15 5 39 4 23 -2 46 0 52 3 5 3 21 7 35 8 14 1 34 5 44 9
14 6 17 5 11 -4 -4 -8 4 -6 19 4 14 10 26 13 26 9 0 -5 5 -2 10 7 5 9 19 15
32 14 13 -1 28 4 35 11 7 7 22 10 33 7 14 -4 20 0 20 11 0 8 6 13 13 10 7 -2
23 7 35 21 19 22 39 30 65 26 4 0 7 6 7 14 0 8 7 15 15 15 8 0 14 5 13 12 -2
7 3 12 10 13 8 0 19 8 26 17 7 10 16 15 19 11 4 -3 7 1 7 9 0 9 16 25 36 37
19 12 33 25 30 30 -3 5 4 11 17 15 18 5 20 8 7 16 -13 9 -7 14 13 11 4 0 7 3
7 9 0 9 19 35 48 65 6 8 12 21 12 29 0 9 5 16 11 16 5 0 17 16 25 35 8 20 18
33 23 31 14 -9 27 16 30 57 3 40 -4 49 -14 17z"/>
<path d="M9334 1908 c-48 -23 -69 -145 -40 -223 15 -38 22 -45 44 -45 40 0 54
14 70 67 25 86 25 118 4 167 -22 48 -37 55 -78 34z"/>
<path d="M14027 1909 c-31 -18 -47 -65 -47 -139 0 -84 19 -130 53 -130 51 0
75 46 84 160 6 88 -36 140 -90 109z"/>
<path d="M5840 1300 c-4 -399 -9 -545 -19 -574 -18 -56 -88 -121 -153 -143
-46 -15 -100 -18 -403 -21 -225 -2 -365 1 -392 8 -35 8 -67 6 -178 -15 -185
-34 -327 -34 -460 0 -107 27 -198 66 -260 112 l-40 29 -71 -36 c-216 -110
-570 -160 -790 -110 -128 29 -226 65 -289 104 -78 50 -83 51 -35 5 69 -64 168
-136 224 -164 70 -34 224 -74 325 -85 199 -22 535 46 708 142 l52 29 53 -41
c72 -55 115 -74 233 -106 132 -36 277 -37 450 -4 66 13 131 22 145 21 14 -1
185 -4 380 -7 382 -6 441 -1 516 42 45 26 92 81 103 122 6 22 1 35 -29 72 -21
25 -41 56 -46 70 -4 14 -11 264 -14 555 l-5 530 -5 -535z"/>
<path d="M11830 1658 c0 -5 9 -17 19 -27 11 -11 16 -23 13 -27 -14 -14 85 8
133 30 l50 24 -108 3 c-59 2 -107 1 -107 -3z"/>
<path d="M2320 1544 c-74 -55 -182 -102 -307 -135 -102 -27 -141 -31 -290 -36
l-173 -6 0 -275 c0 -345 -5 -377 -75 -447 -79 -79 -119 -85 -540 -85 -349 0
-371 2 -490 44 -11 4 11 -22 49 -58 104 -100 101 -100 531 -104 242 -2 380 0
420 8 73 14 135 49 170 95 48 62 55 114 55 421 l0 282 173 4 c150 5 187 9 287
35 63 17 144 44 180 61 l65 31 -3 83 c-4 125 -1 120 -52 82z"/>
<path d="M10467 1473 c-11 -34 -13 -51 -5 -58 8 -7 9 -6 4 3 -8 14 3 16 23 3
7 -5 10 -14 7 -20 -4 -6 0 -11 9 -11 9 0 13 -4 10 -10 -3 -5 1 -10 10 -10 9 0
15 -6 13 -12 -3 -7 5 -21 16 -31 12 -10 14 -15 6 -11 -10 5 -9 0 4 -14 11 -12
15 -22 11 -22 -4 0 1 -8 13 -18 11 -10 30 -37 42 -60 12 -23 26 -39 31 -36 5
3 9 -4 9 -15 0 -12 6 -21 14 -21 8 0 13 -8 12 -17 0 -10 9 -22 22 -28 12 -5
25 -18 28 -28 3 -10 8 -16 11 -14 2 3 30 -20 60 -51 31 -32 60 -56 65 -54 4 1
8 -3 8 -9 0 -5 5 -7 10 -4 6 3 10 -1 10 -9 0 -9 6 -16 14 -16 8 0 16 -7 20
-15 3 -8 12 -15 21 -15 8 0 15 -4 15 -9 0 -10 39 -27 53 -23 4 1 7 -3 7 -9 0
-5 4 -8 9 -4 5 3 16 -4 25 -16 8 -12 19 -18 26 -14 6 4 20 -2 31 -14 11 -12
27 -22 37 -23 9 0 24 -2 32 -2 8 -1 14 -7 13 -13 -1 -6 6 -9 19 -5 12 3 19 1
15 -4 -3 -5 2 -10 11 -11 26 -2 46 -8 61 -17 10 -7 12 -5 6 3 -6 10 -3 11 13
2 11 -6 30 -11 41 -11 12 0 21 -4 21 -9 0 -5 7 -12 16 -15 9 -4 13 -2 8 5 -4
8 4 9 27 4 19 -4 41 -9 49 -10 8 -1 22 -4 30 -7 31 -13 60 -16 60 -7 0 12 37
11 45 -1 8 -12 74 -10 82 3 2 4 11 2 20 -4 10 -9 17 -9 21 -2 4 5 30 11 57 12
82 3 90 4 96 13 3 5 22 9 42 10 20 1 37 5 37 10 0 4 9 8 19 8 11 0 22 6 24 13
4 10 6 10 6 0 1 -7 6 -13 12 -13 5 0 7 5 4 10 -4 6 7 13 24 16 17 4 31 10 31
15 0 5 7 6 15 3 8 -4 15 -1 15 6 0 6 5 8 10 5 6 -4 18 -1 26 6 20 16 76 18 92
2 7 -6 21 -10 32 -8 13 2 20 -2 20 -11 0 -8 4 -13 9 -10 4 3 20 -8 35 -24 14
-17 29 -30 34 -31 4 0 16 -3 27 -6 11 -3 59 -6 108 -6 48 -1 87 -5 87 -10 0
-5 6 -5 13 1 18 15 29 15 38 0 5 -7 9 -8 9 -3 0 6 29 10 70 10 39 0 70 4 70 9
0 5 3 6 7 3 3 -4 12 -2 20 4 9 9 13 8 13 0 0 -6 5 -11 12 -11 6 0 8 3 5 7 -9
8 24 32 46 33 9 0 16 3 16 8 -1 4 0 10 1 15 10 31 6 32 -313 37 l-319 5 -24
28 c-16 18 -24 41 -24 63 0 20 -3 34 -7 32 -280 -144 -541 -176 -860 -107
-373 81 -702 326 -874 652 l-36 69 -16 -49z"/>
<path d="M13042 1227 c1 -31 6 -57 11 -57 12 0 37 -26 37 -39 0 -5 5 -13 12
-17 7 -5 8 -3 3 6 -5 9 -4 11 4 6 6 -4 9 -11 6 -16 -3 -5 2 -15 11 -24 8 -9
13 -20 10 -24 -7 -11 30 -42 40 -34 4 4 4 -1 1 -10 -4 -10 -2 -18 4 -18 11 0
99 -87 93 -92 -2 -2 6 -10 18 -17 15 -9 18 -9 13 0 -6 8 -4 10 4 5 7 -5 10
-14 7 -22 -3 -8 0 -11 9 -8 8 3 27 -7 42 -22 15 -16 33 -29 38 -29 6 -1 9 -7
7 -14 -2 -8 3 -11 12 -8 8 3 24 -3 37 -14 12 -10 30 -19 39 -19 10 0 20 -6 23
-13 2 -7 20 -14 38 -15 19 -2 37 -9 42 -17 5 -9 23 -15 43 -15 24 0 33 -4 28
-12 -4 -7 -3 -8 4 -4 7 4 17 4 24 0 15 -10 53 -16 100 -17 21 0 35 -3 33 -7
-3 -5 2 -10 10 -14 8 -3 15 -1 15 4 0 11 50 3 67 -11 7 -6 18 -7 25 -3 17 11
68 12 68 2 0 -4 9 -3 19 4 15 9 23 9 37 -3 10 -8 15 -9 12 -4 -4 6 16 11 50
12 79 4 105 7 121 17 10 6 12 5 7 -2 -4 -7 -1 -12 8 -12 9 0 16 5 16 11 0 8 5
8 15 -1 11 -9 15 -9 15 -1 0 7 5 9 10 6 6 -3 10 -1 10 5 0 6 8 10 18 9 9 -1
20 0 25 1 4 1 10 3 15 4 4 1 18 8 31 15 17 9 21 10 16 1 -6 -9 -2 -9 14 -1 11
7 21 8 21 4 0 -4 4 -3 8 4 4 7 22 15 40 18 19 3 43 14 55 25 13 13 28 18 40
14 16 -5 19 -3 14 10 -4 9 -3 15 1 15 22 -4 42 2 37 10 -3 5 5 13 17 17 13 4
29 15 36 25 7 11 19 19 25 19 7 0 53 39 102 87 50 48 81 81 70 73 -20 -14 -20
-14 -1 7 10 13 23 20 29 16 5 -3 8 0 5 8 -2 7 6 25 18 38 13 14 21 28 19 32
-3 4 2 10 11 13 8 3 12 10 9 16 -3 5 -1 10 5 10 6 0 8 5 5 10 -3 6 -1 10 5 10
6 0 8 5 5 10 -3 6 -1 10 4 10 6 0 11 7 11 15 0 8 5 15 10 15 6 0 10 5 10 10 0
22 -16 8 -45 -38 -40 -64 -186 -208 -260 -257 -203 -133 -426 -196 -700 -197
-422 -1 -763 160 -973 461 l-52 75 2 -57z"/>
<path d="M10357 1238 c-2 -7 -5 -17 -5 -21 -1 -4 -10 -16 -21 -25 -11 -9 -42
-43 -69 -75 -207 -240 -522 -370 -902 -369 -343 1 -621 105 -833 311 -71 69
-78 73 -72 46 20 -86 28 -107 43 -112 21 -8 42 -35 36 -45 -3 -4 7 -10 21 -14
17 -4 24 -11 21 -20 -3 -8 -1 -15 4 -15 6 -1 16 -2 23 -3 6 -1 11 -7 9 -14 -1
-7 5 -12 14 -12 9 0 12 -5 8 -12 -4 -6 -3 -8 3 -5 6 4 18 -2 28 -13 10 -11 26
-20 37 -20 10 0 18 -4 18 -10 0 -5 7 -10 16 -10 8 0 12 -5 9 -11 -4 -6 -1 -10
6 -8 28 3 40 -1 33 -13 -4 -7 -3 -8 4 -4 6 4 20 -1 30 -11 19 -18 32 -24 64
-26 10 -1 18 -5 18 -10 0 -5 6 -7 12 -5 7 3 18 -1 25 -8 7 -7 22 -10 33 -7 12
3 20 0 20 -6 0 -7 5 -9 10 -6 6 3 10 2 10 -3 0 -5 6 -9 13 -9 68 -4 151 -14
160 -20 7 -4 37 -9 67 -11 78 -4 82 -4 113 1 16 2 27 0 27 -7 0 -7 3 -7 8 -1
4 6 34 10 67 10 33 0 66 4 72 8 7 5 24 7 38 5 14 -3 25 -2 25 2 0 4 14 6 30 4
17 -2 30 1 30 7 0 6 7 8 16 5 9 -4 23 -1 30 5 8 6 14 9 14 6 0 -3 12 0 27 8
15 8 30 12 35 9 4 -3 8 0 8 5 0 6 3 10 8 9 4 -1 21 4 37 11 17 7 38 13 48 14
9 1 17 5 17 9 0 4 20 16 45 27 25 11 45 24 45 29 0 9 50 37 63 34 4 -1 7 4 7
12 0 13 27 31 43 28 4 -1 7 2 7 8 0 5 7 10 16 10 11 0 14 5 10 16 -4 12 -2 15
9 10 10 -4 15 1 15 15 0 11 11 24 25 31 14 6 25 15 25 19 0 4 11 17 25 30 13
13 25 27 25 32 0 10 53 91 63 95 4 2 7 10 7 17 0 7 5 15 11 17 5 2 11 11 12
20 2 9 9 23 16 32 7 9 9 16 3 16 -5 0 -12 -6 -15 -12z"/>
<path d="M10445 1023 c-74 -98 -139 -164 -235 -235 -178 -133 -331 -195 -605
-242 -293 -51 -683 15 -952 160 l-83 44 -42 -30 c-51 -36 -232 -101 -372 -135
-273 -64 -443 -72 -627 -30 -179 41 -255 74 -369 160 -81 61 -78 60 -90 16
-15 -57 -85 -125 -151 -147 -47 -16 -100 -19 -409 -21 -368 -4 -394 -1 -505
42 -26 10 58 -77 107 -112 68 -47 123 -53 493 -52 371 0 425 6 495 54 48 33
86 89 95 139 l6 39 37 -35 c111 -106 206 -156 380 -199 194 -49 361 -44 637
21 158 38 339 102 394 141 l44 31 36 -21 c146 -87 278 -136 476 -176 382 -78
828 11 1112 223 98 73 174 148 249 249 l57 75 -60 60 -60 59 -58 -78z"/>
<path d="M2650 1045 c0 -12 6 -27 13 -33 6 -7 12 -16 12 -20 2 -20 18 -52 26
-52 6 0 7 -4 4 -10 -3 -5 -1 -10 5 -10 6 0 8 -4 5 -10 -3 -5 -1 -10 4 -10 6 0
17 -16 26 -36 8 -19 19 -33 25 -29 11 7 40 -18 40 -34 0 -6 5 -11 11 -11 5 0
7 -5 3 -12 -4 -6 -3 -8 3 -5 5 3 20 -4 34 -17 13 -12 30 -21 36 -19 6 2 14 -5
18 -16 4 -13 15 -21 29 -21 13 0 41 -8 62 -17 22 -9 42 -16 47 -15 4 1 7 -4 7
-10 0 -9 4 -8 10 2 5 8 10 10 10 4 0 -6 8 -11 18 -11 66 0 86 -4 72 -13 -12
-8 -11 -10 8 -10 12 0 22 4 22 10 0 5 17 8 38 6 20 -3 37 -5 37 -6 0 -1 10 -3
23 -4 12 -2 22 1 22 5 0 4 8 6 18 5 9 -2 20 2 24 8 6 8 8 8 8 0 0 -9 12 -9 42
-3 23 6 47 8 55 5 7 -3 13 -1 13 4 0 5 8 9 18 9 23 0 50 6 58 13 3 4 12 4 20
1 8 -3 23 2 33 11 10 9 20 13 24 10 4 -4 18 1 33 11 17 11 24 12 19 4 -5 -8 4
-3 18 10 15 14 30 21 34 18 3 -4 15 1 26 10 10 10 22 18 26 18 3 0 5 3 4 7 -2
5 0 8 5 7 18 -3 52 15 52 27 0 13 12 18 25 12 2 -2 10 5 17 15 14 19 55 30 63
17 3 -4 16 -7 30 -5 14 1 25 -3 25 -10 0 -15 45 -65 58 -65 5 0 12 -9 15 -20
3 -11 11 -19 19 -18 7 2 12 -3 10 -10 -1 -7 3 -12 10 -11 27 3 37 -2 32 -16
-4 -10 0 -13 15 -10 14 2 21 -1 21 -11 0 -8 5 -14 11 -14 5 0 7 5 3 11 -5 8
-1 8 14 0 12 -6 23 -15 27 -20 3 -6 22 -7 42 -4 29 5 35 3 28 -8 -7 -12 -6
-12 7 -1 13 10 19 10 31 -2 11 -11 17 -12 26 -3 8 8 11 8 11 -1 0 -7 9 -12 21
-12 11 0 17 5 14 10 -3 6 3 10 15 10 12 0 18 -4 15 -10 -9 -14 8 -13 23 2 9 9
12 9 12 -1 0 -10 3 -11 13 -2 10 7 17 7 24 0 8 -8 13 -7 18 2 6 8 4 10 -5 4
-9 -5 -11 -4 -6 3 4 7 14 12 22 12 8 0 12 -4 9 -10 -3 -5 -1 -10 4 -10 6 0 11
4 11 9 0 5 7 12 16 15 8 3 12 2 9 -4 -3 -6 -1 -10 4 -10 6 0 11 4 11 10 0 5 7
6 17 3 11 -5 14 -3 8 6 -5 10 -2 11 12 7 21 -7 78 34 78 55 0 7 9 15 20 20 13
5 15 8 5 8 -13 1 -13 2 0 11 10 6 17 5 23 -5 7 -13 11 -13 32 1 24 16 25 15
26 -7 0 -20 2 -21 7 -7 7 16 8 16 20 -3 8 -12 9 -18 3 -14 -6 3 -11 1 -11 -4
0 -6 7 -11 15 -11 7 0 19 -8 24 -17 8 -14 13 -15 19 -5 7 10 13 8 27 -8 13
-14 21 -17 31 -9 8 6 14 7 18 0 4 -6 13 -8 20 -5 8 3 17 0 21 -5 3 -6 10 -9
15 -6 16 10 80 12 80 3 0 -5 8 -5 18 1 17 9 69 7 79 -3 4 -3 13 -1 20 6 11 9
16 9 23 -1 6 -11 8 -11 12 0 4 11 8 12 20 2 11 -10 17 -10 26 -1 9 9 12 9 12
-1 0 -11 3 -11 15 -1 10 9 15 9 15 1 0 -6 5 -11 11 -11 5 0 8 4 5 9 -3 4 6 6
19 3 17 -3 25 0 25 9 0 11 2 11 10 -1 7 -11 10 -11 10 -2 0 10 5 10 20 2 13
-7 20 -7 20 -1 0 6 7 7 17 4 11 -4 14 -3 9 6 -5 8 -3 11 5 9 8 -1 15 2 17 7 2
6 12 13 23 17 12 5 19 14 17 20 -3 7 4 19 14 28 17 13 -20 15 -370 15 -292 0
-393 3 -404 12 -11 10 -18 10 -34 -1 -30 -20 -248 -51 -359 -49 -202 2 -358
74 -431 199 l-25 43 -60 -48 c-149 -120 -392 -193 -644 -193 -212 0 -371 58
-496 182 -36 36 -77 81 -92 100 -22 29 -26 32 -27 15z m2167 -261 c-3 -3 -12
-4 -19 -1 -8 3 -5 6 6 6 11 1 17 -2 13 -5z"/>
<path d="M7121 1053 c-1 -6 4 -15 9 -18 6 -3 10 -15 10 -26 0 -10 5 -19 11
-19 6 0 8 -7 5 -16 -4 -10 -2 -13 6 -8 8 5 9 2 4 -11 -4 -12 1 -26 16 -43 13
-14 16 -22 8 -18 -8 4 -4 -1 10 -13 14 -11 25 -26 25 -33 1 -7 6 -12 12 -11 7
2 15 -6 18 -17 4 -11 11 -18 16 -15 5 4 9 -1 9 -10 0 -8 8 -19 17 -22 9 -4 25
-14 35 -22 10 -9 20 -14 23 -11 2 3 16 -6 31 -20 15 -14 23 -18 19 -10 -7 13
-6 13 11 -1 27 -22 74 -40 85 -34 5 4 9 2 9 -3 0 -5 6 -9 13 -10 6 -1 32 -4
57 -8 25 -3 60 -6 77 -6 18 0 31 -3 29 -7 -2 -3 16 -7 40 -7 24 -1 41 2 38 7
-8 13 10 11 24 -3 8 -8 12 -8 12 -1 0 6 17 9 42 7 23 -2 47 0 52 5 16 12 57
20 50 10 -3 -5 -1 -9 5 -9 5 0 13 5 16 10 3 6 11 10 16 10 6 0 7 -4 4 -10 -3
-5 -1 -10 4 -10 6 0 11 5 11 11 0 6 7 9 15 5 9 -3 15 0 15 9 0 10 9 14 28 13
41 -3 105 13 126 31 16 13 18 13 11 1 -5 -9 0 -8 13 4 17 14 22 16 22 5 0 -11
2 -11 10 1 5 8 10 11 10 5 0 -5 5 -2 11 8 8 14 14 16 25 6 12 -9 13 -9 9 2 -3
9 5 19 22 27 16 7 37 24 47 39 13 17 14 24 5 19 -8 -4 -6 -1 4 7 19 16 23 37
6 37 -5 0 -7 -4 -4 -10 3 -5 0 -8 -7 -5 -7 3 -71 -13 -142 -35 -471 -147 -847
-95 -1039 145 -23 29 -47 61 -54 71 -6 11 -12 14 -12 7z"/>
<path d="M6088 784 c6 -3 10 -9 7 -13 -2 -5 3 -17 11 -27 9 -10 13 -13 9 -6
-3 6 -2 12 4 12 5 0 13 -9 16 -20 3 -11 13 -20 22 -20 8 0 13 -6 10 -13 -3 -7
3 -13 13 -13 10 0 16 5 12 11 -3 5 5 2 20 -7 20 -13 28 -14 38 -5 8 7 10 8 7
1 -7 -12 367 -14 379 -2 3 4 17 2 31 -5 19 -8 30 -7 53 6 15 9 37 17 48 17 11
0 30 12 41 28 12 15 26 33 31 40 9 9 -63 12 -352 12 -200 0 -374 3 -388 5 -14
3 -19 3 -12 -1z"/>
<path d="M547 774 c-6 -7 12 -45 28 -56 5 -4 13 -4 19 -1 5 3 6 2 3 -4 -4 -5
4 -15 16 -21 24 -11 25 -11 109 -15 31 -1 60 -5 63 -9 4 -4 16 -3 27 3 18 10
80 5 101 -8 6 -4 7 -1 2 6 -5 10 2 11 30 7 25 -4 34 -3 29 5 -5 8 -1 8 13 0
11 -6 23 -8 26 -4 4 3 13 0 22 -7 8 -7 15 -8 15 -3 0 11 36 11 46 0 4 -4 13
-2 21 4 9 9 13 8 13 0 0 -9 5 -9 20 -1 11 6 25 8 30 5 6 -3 10 -1 10 5 0 7 7
9 15 6 9 -3 18 1 22 9 4 13 8 13 21 3 13 -11 15 -10 9 6 -5 13 -3 17 7 13 17
-7 33 11 31 33 0 8 4 18 10 22 5 4 -161 8 -371 8 -209 0 -383 -3 -387 -6z
m743 -38 c0 -3 -4 -8 -10 -11 -5 -3 -10 -1 -10 4 0 6 5 11 10 11 6 0 10 -2 10
-4z"/>
</g>
</svg>
