<?xml version="1.0" standalone="no"?>
<!DOCTYPE svg PUBLIC "-//W3C//DTD SVG 20010904//EN"
 "http://www.w3.org/TR/2001/REC-SVG-20010904/DTD/svg10.dtd">
<svg version="1.0" xmlns="http://www.w3.org/2000/svg"
 width="690.000000pt" height="690.000000pt" viewBox="0 0 690.000000 690.000000"
 preserveAspectRatio="xMidYMid meet">
<metadata>
Created by potrace 1.14, written by Peter Selinger 2001-2017
</metadata>
<g transform="translate(0.000000,690.000000) scale(0.100000,-0.100000)"
fill="#000000" stroke="none">
<path d="M3287 4345 c-168 -32 -315 -107 -442 -227 -130 -122 -210 -257 -257
-430 -19 -70 -23 -107 -22 -238 1 -138 3 -164 27 -243 84 -273 269 -487 517
-594 111 -48 182 -64 307 -70 254 -13 466 64 643 234 171 162 263 364 277 606
l6 108 -164 -3 -163 -3 -42 -85 c-24 -47 -43 -88 -43 -92 -1 -5 55 -8 124 -8
144 0 139 5 104 -101 -76 -232 -255 -404 -499 -481 -64 -19 -96 -23 -210 -23
-121 1 -143 4 -215 29 -250 86 -443 295 -501 544 -26 109 -16 284 23 393 100
287 364 469 683 471 88 0 118 -4 183 -26 101 -34 181 -85 271 -174 l73 -72
116 46 c64 25 117 51 117 58 0 6 -24 41 -54 76 -117 140 -277 240 -461 290
-105 28 -291 35 -398 15z"/>
<path d="M3367 3910 c-109 -28 -218 -124 -257 -226 -18 -50 -20 -74 -18 -227
l3 -172 57 57 c62 63 98 139 98 209 0 185 224 266 347 126 78 -89 47 -244 -59
-296 -82 -39 -173 -24 -233 39 l-29 30 -14 -43 c-19 -56 -58 -108 -120 -159
l-52 -42 0 -114 0 -114 28 7 c44 11 85 39 109 75 19 27 23 47 23 108 0 67 2
73 18 67 84 -37 131 -47 202 -43 257 15 416 276 311 513 -30 67 -111 148 -181
179 -67 30 -170 42 -233 26z"/>
</g>
</svg>
